<svg width="20" height="20" viewBox="0 0 20 20" fill="none" xmlns="http://www.w3.org/2000/svg">
<path d="M18.3001 17.5C18.7585 17.5 19.1301 17.8716 19.1301 18.33C19.1301 18.7884 18.7585 19.16 18.3001 19.16L1.70012 19.16C1.24172 19.16 0.870117 18.7884 0.870117 18.33C0.870117 17.8716 1.24172 17.5 1.70012 17.5L18.3001 17.5Z" fill="#181033"/>
<path d="M5.90855 3.65194C6.36597 3.69571 6.80195 3.86593 7.16894 4.14232L7.16976 4.14151L10.5068 6.63151L10.5125 6.63637L10.6089 6.69959C10.7094 6.75603 10.8208 6.7915 10.9364 6.80254C11.0903 6.8172 11.246 6.78861 11.3846 6.71986L11.3871 6.71823L14.857 5.01204L15.0969 4.90504C15.585 4.7134 16.1168 4.66132 16.6329 4.75428L16.889 4.81265L16.8971 4.81508L17.702 5.04689C17.9843 5.12644 18.2448 5.26724 18.4664 5.45946C18.6899 5.65343 18.8673 5.89511 18.9859 6.16626C19.1044 6.43731 19.1614 6.73137 19.152 7.02706C19.1428 7.31944 19.0682 7.6061 18.9357 7.86678L18.9365 7.86759L18.6212 8.49823C18.3524 9.03565 17.9187 9.48145 17.368 9.76265L17.3592 9.76672L6.70207 15.0539L6.70126 15.0547C6.29045 15.2581 5.83258 15.3435 5.37845 15.3036C5.31348 15.3081 5.24773 15.3057 5.1823 15.2946L3.22321 14.9631C2.96218 14.9189 2.73774 14.7525 2.61935 14.5157L0.959349 11.1957C0.754409 10.7857 0.920604 10.287 1.33057 10.082L2.24325 9.6257C2.59027 9.45123 2.97339 9.3606 3.36181 9.3606C3.70242 9.3606 4.03901 9.43007 4.35067 9.56486L4.48198 9.62645L4.52981 9.65243L4.6368 9.71567C4.7491 9.76979 4.87189 9.79826 4.99668 9.79834C5.12637 9.79834 5.25452 9.76829 5.37034 9.70994L5.38088 9.70513L5.56406 9.61516L3.44935 5.3857C3.35094 5.18883 3.33517 4.96066 3.40477 4.75185C3.47442 4.54317 3.62379 4.3704 3.82057 4.27201L4.57276 3.89591L4.73001 3.82539C5.10222 3.67336 5.5066 3.61351 5.90855 3.65194ZM5.75049 5.30465C5.59748 5.29002 5.44345 5.31791 5.3055 5.3857L7.42427 9.62321L7.4575 9.6994C7.52581 9.87893 7.53026 10.0776 7.46803 10.2611C7.40574 10.4447 7.28144 10.6004 7.11788 10.7013L7.04493 10.741L6.11685 11.1917L6.11767 11.1925C5.77011 11.3676 5.38586 11.4583 4.99668 11.4583C4.6563 11.4583 4.3201 11.3888 4.00863 11.2541L3.87651 11.1925C3.86046 11.1844 3.84417 11.1756 3.82868 11.1665L3.71682 11.1009C3.60586 11.0483 3.48477 11.0206 3.36181 11.0206C3.23208 11.0206 3.10399 11.0506 2.98814 11.109L2.98571 11.1106L2.8155 11.1957L3.91541 13.3963L5.30144 13.6314C5.35363 13.6302 5.40637 13.6323 5.4587 13.6412C5.58794 13.6629 5.71975 13.6539 5.8437 13.6152L5.96447 13.5665L16.6126 8.28421L16.6969 8.2372C16.8867 8.12017 17.0374 7.95352 17.1362 7.75573L17.4515 7.12513L17.4556 7.11622L18.194 7.49636L17.4564 7.11622C17.4789 7.0724 17.4913 7.02362 17.4929 6.97437C17.4944 6.92519 17.4851 6.87599 17.4653 6.83091C17.4456 6.78578 17.4158 6.74566 17.3786 6.71338C17.3414 6.68106 17.2972 6.65768 17.2498 6.64448L17.2416 6.64205L16.4448 6.41185L16.3387 6.38754C16.0898 6.34271 15.8319 6.37983 15.6043 6.49452L15.597 6.49777L12.1189 8.20803C11.704 8.41324 11.24 8.49831 10.7792 8.4544C10.3198 8.41066 9.88177 8.24055 9.51383 7.96243L6.17684 5.47243L6.17279 5.46918C6.05011 5.37632 5.90365 5.3193 5.75049 5.30465Z" fill="#181033"/>
</svg>
