<svg width="20" height="20" viewBox="0 0 20 20" fill="none" xmlns="http://www.w3.org/2000/svg">
<path d="M18.3001 17.5C18.7585 17.5 19.1301 17.8716 19.1301 18.33C19.1301 18.7884 18.7585 19.16 18.3001 19.16L1.70012 19.16C1.24172 19.16 0.870117 18.7884 0.870117 18.33C0.870117 17.8716 1.24172 17.5 1.70012 17.5L18.3001 17.5Z" fill="#181033"/>
<path d="M4.18686 5.43064C4.18686 5.26796 4.10431 5.1069 3.95909 5.00592L3.89344 4.96701L3.76213 4.90136L2.68654 7.32165L3.75322 8.38753L3.75727 8.39235L3.85859 8.47991C3.89432 8.50606 3.93249 8.52863 3.97206 8.5488L14.8229 13.9665L14.8958 14.0014C15.0706 14.0759 15.2693 14.1032 15.4697 14.0775L16.4488 13.9528H16.4553L16.538 13.9317C16.7204 13.8596 16.8175 13.6336 16.7081 13.4373L16.2186 12.5967C16.2164 12.5928 16.2143 12.5884 16.2121 12.5845C16.109 12.4007 15.9365 12.235 15.7153 12.1185L12.0751 10.2979C11.7119 10.117 11.3981 9.85041 11.1616 9.52065C10.9252 9.19089 10.7731 8.80818 10.7182 8.40613V8.40372L10.12 3.92222C10.1014 3.78924 10.0508 3.66176 9.97253 3.55261C9.89377 3.44279 9.7896 3.35351 9.66859 3.29324L9.66452 3.29161L9.53645 3.22677L7.41932 7.46188C7.32091 7.65869 7.1482 7.80804 6.93947 7.87768C6.75682 7.93857 6.55933 7.93435 6.38101 7.86634L6.30563 7.8331L5.39295 7.37677L5.38728 7.37352C4.66007 7.00325 4.18686 6.25738 4.18686 5.43064ZM5.84686 5.43064C5.84686 5.61639 5.95468 5.7997 6.14027 5.89427L6.30563 5.97695L8.42442 1.73942L8.46492 1.66809C8.56701 1.5061 8.72247 1.38354 8.9059 1.32279C9.11523 1.25344 9.34356 1.27047 9.54052 1.3698L10.4078 1.80831L10.4086 1.8075C10.7718 1.98844 11.0856 2.25583 11.3221 2.58563C11.5289 2.87415 11.6712 3.20315 11.7403 3.55018L11.7655 3.70013V3.70256L12.3637 8.18407C12.3822 8.31734 12.4327 8.44431 12.5112 8.5537C12.5899 8.66351 12.6942 8.75282 12.8151 8.81308H12.8168L16.4829 10.6465C16.9572 10.895 17.3816 11.2766 17.6597 11.7724L18.1509 12.6153L18.1591 12.6299L18.2191 12.7466C18.7978 13.961 18.0366 15.43 16.6579 15.599L16.6588 15.5997H16.6563L16.653 15.6006L16.6523 15.5997L15.6788 15.7237L15.6796 15.7246C15.1336 15.7943 14.5689 15.7027 14.0666 15.4434L3.22231 10.0305C2.98403 9.90967 2.76666 9.75106 2.57873 9.56115L1.11002 8.09248C0.867183 7.84964 0.798705 7.48229 0.938181 7.16846L2.59818 3.43346L2.63628 3.35808C2.73392 3.18754 2.88974 3.05628 3.07641 2.98927C3.28976 2.91273 3.52535 2.92682 3.72809 3.02818L4.64076 3.48452L4.64644 3.48776L4.77936 3.56152C5.4307 3.95158 5.84686 4.65546 5.84686 5.43064Z" fill="#181033"/>
</svg>
